<?xml version="1.0" encoding="iso-8859-1"?>
<!-- Uploaded to: SVG Repo, www.svgrepo.com, Generator: SVG Repo Mixer Tools -->
<svg fill="#000000" height="800px" width="800px" version="1.1" id="Layer_1" xmlns="http://www.w3.org/2000/svg" xmlns:xlink="http://www.w3.org/1999/xlink" 
	 viewBox="0 0 512 512" xml:space="preserve">
<g>
	<g>
		<path d="M21.119,380.812l13.174,65.872c2.713,13.562,14.62,23.323,28.451,23.323h386.514c13.831,0,25.738-9.762,28.451-23.323
			l13.174-65.872H21.119z"/>
	</g>
</g>
<g>
	<g>
		<path d="M511.933,328.961c-9.447-103.573-100.391-187.213-217.14-202.583c5.872-11.9,9.449-25.43,9.449-36.144
			c0-26.601-21.641-48.241-48.242-48.241c-26.6,0-48.241,21.641-48.241,48.241c0,10.713,3.577,24.244,9.449,36.144
			c-116.75,15.37-207.694,99.01-217.141,202.583c-0.417,4.575,1.111,9.112,4.206,12.506c3.095,3.394,7.479,5.344,12.072,5.344
			h479.309c4.596,0,8.981-1.935,12.078-5.332C510.83,338.083,512.35,333.54,511.933,328.961z M256,123.215
			c-5.595-3.325-14.503-21.784-14.503-32.98c0-7.997,6.506-14.503,14.503-14.503c7.997,0,14.503,6.506,14.503,14.503
			C270.503,101.432,261.593,119.89,256,123.215z"/>
	</g>
</g>
</svg>