<?xml version="1.0" encoding="UTF-8" standalone="no"?>
<!-- Created with Inkscape (http://www.inkscape.org/) -->

<svg
   width="300.90677mm"
   height="290.11639mm"
   viewBox="0 0 300.90672 290.11633"
   version="1.1"
   id="svg1"
   xml:space="preserve"
   inkscape:version="1.4 (86a8ad7, 2024-10-11)"
   sodipodi:docname="float_diary.svg"
   xmlns:inkscape="http://www.inkscape.org/namespaces/inkscape"
   xmlns:sodipodi="http://sodipodi.sourceforge.net/DTD/sodipodi-0.dtd"
   xmlns="http://www.w3.org/2000/svg"
   xmlns:svg="http://www.w3.org/2000/svg"><sodipodi:namedview
     id="namedview1"
     pagecolor="#ffffff"
     bordercolor="#000000"
     borderopacity="0.25"
     inkscape:showpageshadow="2"
     inkscape:pageopacity="0.0"
     inkscape:pagecheckerboard="0"
     inkscape:deskcolor="#d1d1d1"
     inkscape:document-units="mm"
     inkscape:zoom="0.68862935"
     inkscape:cx="742.05376"
     inkscape:cy="613.5376"
     inkscape:window-width="1920"
     inkscape:window-height="991"
     inkscape:window-x="-9"
     inkscape:window-y="-9"
     inkscape:window-maximized="1"
     inkscape:current-layer="layer1"
     showgrid="false" /><defs
     id="defs1"><path
       id="a"
       d="M -22,2.24 H 20 V 22 h -42 z" /></defs><g
     inkscape:label="Layer 1"
     inkscape:groupmode="layer"
     id="layer1"
     transform="translate(91.729967,-16.680218)"><g
       style="fill:#000000"
       id="g1"
       transform="matrix(8.8194444,0,0,8.8194444,50.426789,148.04661)"><path
         fill-rule="evenodd"
         clip-rule="evenodd"
         d="M 11.25,12.75 V 18 h 1.5 V 12.75 H 18 v -1.5 H 12.75 V 6 h -1.5 v 5.25 H 6 v 1.5 z"
         fill="#080341"
         id="path1-4"
         style="fill:#000000" /></g><g
       style="fill:#000000"
       id="g11"
       transform="matrix(5.0475965,0,0,4.2974026,-152.08619,16.600842)"><g
         id="g2">
	<path
   d="M 46.998,18.991 C 46.997,18.876 46.961,18.765 46.92,18.656 46.908,18.624 46.911,18.588 46.896,18.557 L 46.895,18.553 40,4.763 V 1 C 40,0.698 39.864,0.413 39.63,0.224 39.396,0.034 39.088,-0.04 38.794,0.022 l -19,4 C 19.331,4.119 19,4.527 19,5 v 3.685 l -6.819,9.742 c -0.006,0.009 -0.006,0.021 -0.012,0.03 -0.073,0.112 -0.124,0.236 -0.148,0.368 -0.004,0.02 -0.005,0.038 -0.007,0.058 C 12.009,18.922 12,18.96 12,19 v 13 15 5 c 0,0.4 0.238,0.762 0.606,0.919 l 14,6 c 0.011,0.005 0.022,0.003 0.033,0.007 C 26.755,58.97 26.875,59 27,59 c 0.085,0 0.17,-0.011 0.254,-0.033 l 19,-5 C 46.694,53.851 47,53.454 47,53 V 38 22 19 Z M 33,5.241 V 3.285 L 35,2.864 V 4.82 Z M 31,5.662 29,6.083 V 4.127 L 31,3.706 Z M 27,6.504 25,6.925 V 5 C 25,4.99 24.994,4.981 24.994,4.971 L 27,4.548 Z M 21.439,9.719 31.16,7.672 38.451,6.137 44.555,18.346 38.373,19.973 27.553,22.82 21.982,10.883 Z M 14,20.419 26,24.705 V 36.484 L 14,31.341 Z m 14,4.351 17,-4.474 v 1.238 L 28,35.851 Z M 38,4.188 37,4.398 V 2.443 l 1,-0.21 z M 21,5.811 23,5.39 v 1.956 l -2,0.421 z m -7,42.705 12,5.143 v 2.824 L 14,51.34 Z m 14,8.187 V 53.485 L 45,40.064 V 52.23 Z"
   id="path1-5" />
	<path
   d="m 34.469,18.977 c 0.319,0 0.655,-0.045 0.998,-0.135 1.714,-0.449 2.282,-1.609 2.457,-2.504 0.194,-0.993 -0.027,-2.037 -0.21,-2.735 -0.742,-2.836 -2.333,-4.046 -4.524,-3.469 -1.545,0.404 -3.188,1.642 -2.247,5.24 0.624,2.391 1.811,3.603 3.526,3.603 z"
   id="path2-5" />
</g></g></g></svg>
