<?xml version="1.0" encoding="UTF-8" standalone="no"?>
<!-- Created with Inkscape (http://www.inkscape.org/) -->

<svg
   width="230.85219mm"
   height="238.93971mm"
   viewBox="0 0 230.85218 238.93968"
   version="1.1"
   id="svg1"
   xml:space="preserve"
   inkscape:version="1.4 (86a8ad7, 2024-10-11)"
   sodipodi:docname="float_popular.svg"
   xmlns:inkscape="http://www.inkscape.org/namespaces/inkscape"
   xmlns:sodipodi="http://sodipodi.sourceforge.net/DTD/sodipodi-0.dtd"
   xmlns="http://www.w3.org/2000/svg"
   xmlns:svg="http://www.w3.org/2000/svg"><sodipodi:namedview
     id="namedview1"
     pagecolor="#ffffff"
     bordercolor="#000000"
     borderopacity="0.25"
     inkscape:showpageshadow="2"
     inkscape:pageopacity="0.0"
     inkscape:pagecheckerboard="0"
     inkscape:deskcolor="#d1d1d1"
     inkscape:document-units="mm"
     inkscape:zoom="0.68862935"
     inkscape:cx="392.0832"
     inkscape:cy="421.85248"
     inkscape:window-width="1920"
     inkscape:window-height="991"
     inkscape:window-x="-9"
     inkscape:window-y="-9"
     inkscape:window-maximized="1"
     inkscape:current-layer="layer1"
     showgrid="false" /><defs
     id="defs1"><path
       id="a"
       d="M -22,2.24 H 20 V 22 h -42 z" /></defs><g
     inkscape:label="Layer 1"
     inkscape:groupmode="layer"
     id="layer1"
     transform="translate(-0.99342087,-67.472681)"><path
       clip-path="url(#b)"
       d="m 120.43516,114.98399 c -0.20285,13.25562 -4.61257,31.20319 -25.28535,38.16174 6.47347,-15.39876 7.46125,-30.13605 2.87514,-43.91202 C 91.89544,90.739335 71.44314,76.293085 57.834741,68.426141 53.186894,65.727391 47.224949,69.07878 47.313144,74.449821 47.489532,84.257044 44.50856,98.588641 30.035852,113.06135 10.756546,132.32302 0.99342087,152.2285 0.99342087,172.21336 c 0,25.09132 17.63888913,57.17646 52.91666713,57.17646 -35.639375,-35.63937 -8.819444,-65.9959 -8.819444,-65.9959 7.46125,52.15819 43.991386,65.9959 61.736116,65.9959 15.09007,0 44.09722,-11.0243 44.09722,-56.86777 0,-27.63132 -11.7475,-48.60396 -21.03438,-60.84535 -3.06034,-4.03931 -9.38389,-1.74625 -9.45444,3.30729"
       id="path1"
       style="stroke-width:8.81944" /><g
       style="fill:#000000"
       id="g1"
       transform="matrix(8.8194444,0,0,8.8194444,73.095612,147.66239)"><path
         fill-rule="evenodd"
         clip-rule="evenodd"
         d="M 11.25,12.75 V 18 h 1.5 V 12.75 H 18 v -1.5 H 12.75 V 6 h -1.5 v 5.25 H 6 v 1.5 z"
         fill="#080341"
         id="path1-4"
         style="fill:#000000" /></g></g></svg>
