<?xml version="1.0" encoding="UTF-8" standalone="no"?>
<!-- Created with Inkscape (http://www.inkscape.org/) -->

<svg
   width="300.90677mm"
   height="290.11639mm"
   viewBox="0 0 300.90672 290.11633"
   version="1.1"
   id="svg1"
   xml:space="preserve"
   inkscape:version="1.4 (86a8ad7, 2024-10-11)"
   sodipodi:docname="float_snacks.svg"
   xmlns:inkscape="http://www.inkscape.org/namespaces/inkscape"
   xmlns:sodipodi="http://sodipodi.sourceforge.net/DTD/sodipodi-0.dtd"
   xmlns="http://www.w3.org/2000/svg"
   xmlns:svg="http://www.w3.org/2000/svg"><sodipodi:namedview
     id="namedview1"
     pagecolor="#ffffff"
     bordercolor="#000000"
     borderopacity="0.25"
     inkscape:showpageshadow="2"
     inkscape:pageopacity="0.0"
     inkscape:pagecheckerboard="0"
     inkscape:deskcolor="#d1d1d1"
     inkscape:document-units="mm"
     inkscape:zoom="0.68862935"
     inkscape:cx="742.05376"
     inkscape:cy="497.3648"
     inkscape:window-width="1920"
     inkscape:window-height="991"
     inkscape:window-x="-9"
     inkscape:window-y="-9"
     inkscape:window-maximized="1"
     inkscape:current-layer="layer1"
     showgrid="false" /><defs
     id="defs1"><path
       id="a"
       d="M -22,2.24 H 20 V 22 h -42 z" /></defs><g
     inkscape:label="Layer 1"
     inkscape:groupmode="layer"
     id="layer1"
     transform="translate(91.729967,-16.680218)"><g
       style="fill:#000000"
       id="g1"
       transform="matrix(8.8194444,0,0,8.8194444,50.426789,148.04661)"><path
         fill-rule="evenodd"
         clip-rule="evenodd"
         d="M 11.25,12.75 V 18 h 1.5 V 12.75 H 18 v -1.5 H 12.75 V 6 h -1.5 v 5.25 H 6 v 1.5 z"
         fill="#080341"
         id="path1-4"
         style="fill:#000000" /></g><g
       style="fill:#000000"
       id="g10"
       transform="matrix(0.49517428,0,0,0.48536245,-91.729967,11.600966)"><g
         id="g5">
	<g
   id="g4">
		<path
   d="M 36.73,448.031 H 157.862 C 142.79,436.854 130.7,419.711 123.47,399.072 103.994,394.856 89.194,375.14 89.194,351.464 c 0,-24.745 16.178,-45.191 36.981,-48.08 14.054,-33.258 41.26,-55.86 72.474,-55.888 l 9.483,-118.201 h 13.309 v -27.004 h -105.83 c -0.32,-40.813 28.145,-74.32 70.19,-74.542 11.139,-0.052 11.146,-17.34 0,-17.284 -51.251,0.265 -87.965,41.583 -87.47,91.818 H 0 v 27.004 h 13.283 z"
   id="path1" />
		<path
   d="m 182.905,443.783 c 5.077,1.688 10.353,2.686 15.803,2.686 h 165.965 c 24.946,0 46.703,-18.799 58.236,-46.534 h -5.431 -22.554 -208.505 -17.965 -22.556 -5.424 c 9.005,21.679 24.273,37.809 42.431,43.848 z"
   id="path2" />
		<path
   d="m 194.2,302.99 h 189.088 27.996 8.572 C 407.757,278.973 387.552,263.18 364.673,263.18 H 198.708 c -0.449,0 -0.881,0.076 -1.318,0.092 -22.328,0.598 -42.008,16.175 -53.856,39.718 h 8.56 27.994 z"
   id="path3" />
		<path
   d="m 137.174,318.691 h -5.949 c -0.77,0 -1.499,0.209 -2.254,0.285 -3.17,0.336 -6.167,1.302 -8.917,2.921 -8.935,5.242 -15.152,16.459 -15.152,29.562 0,12.271 5.49,22.843 13.513,28.457 2.659,1.863 5.572,3.182 8.704,3.803 1.348,0.269 2.707,0.514 4.113,0.514 h 4.105 0.958 17.767 33.62 221.641 17.769 0.95 4.119 c 1.402,0 2.766,-0.245 4.1,-0.514 3.138,-0.612 6.047,-1.932 8.708,-3.795 8.035,-5.614 13.525,-16.186 13.525,-28.465 0,-13.111 -6.224,-24.333 -15.172,-29.57 -2.745,-1.611 -5.759,-2.577 -8.917,-2.913 -0.749,-0.076 -1.471,-0.285 -2.244,-0.285 h -5.959 -2.589 -19.107 -211.571 -34.069 -19.102 z m 10.852,20.094 c 9.771,-4.016 20.732,-4.184 33.238,0.981 3.116,1.291 6.286,3.358 9.552,5.414 7.963,4.997 16.511,9.918 26.389,3.342 4.989,-3.321 10.95,-7.866 17.117,-8.884 12.197,-2.02 23.253,-1.848 33.953,5.249 18.522,12.283 34.648,15.609 53.952,2.638 8.207,-5.503 18.189,-12.571 28.709,-12.034 12.619,0.657 23.736,5.41 34.576,11.729 13.316,7.758 20.782,7.634 31.562,-0.425 1.647,-1.234 3.358,-2.613 5.189,-4.216 2.821,-2.461 6.147,-2.14 8.648,-0.558 0.513,0.321 1.025,0.626 1.454,1.042 2.192,2.169 2.914,5.435 0.862,8.248 -0.309,0.421 -0.51,0.873 -0.97,1.274 -0.229,0.196 -0.441,0.36 -0.682,0.564 -5.05,4.364 -9.843,7.835 -14.619,10.352 -10.624,5.594 -21.203,6.055 -34.729,-1.812 -16.727,-9.75 -31.446,-16.358 -49.079,-4.513 -9.285,6.231 -19.376,12.965 -30.921,13.738 -14.343,0.957 -24.79,-3.014 -36.62,-10.864 -21.359,-14.15 -33.867,-1.175 -53.409,6.516 -9.602,3.771 -16.068,-1.082 -22.632,-6.02 -3.146,-2.368 -6.319,-4.761 -9.862,-6.231 -14.519,-6.011 -24.686,-4.82 -33.965,2.225 -3.841,2.913 -7.552,6.732 -11.327,11.605 -0.537,0.689 -1.138,1.105 -1.737,1.494 -0.345,0.225 -0.683,0.421 -1.036,0.562 -2.604,0.981 -5.354,-0.337 -7.091,-2.685 -1.748,-2.353 -2.331,-5.619 -0.517,-8.601 0.158,-0.261 0.196,-0.521 0.383,-0.781 1.847,-2.376 3.753,-4.616 5.708,-6.677 0.583,-0.608 1.196,-1.082 1.781,-1.667 4.998,-4.853 10.343,-8.629 16.123,-11.005 z"
   id="path4-4" />
	</g>
</g></g></g></svg>
