<?xml version="1.0" encoding="UTF-8" standalone="no"?>
<!-- Created with Inkscape (http://www.inkscape.org/) -->

<svg
   version="1.1"
   id="svg1"
   width="174.9384"
   height="174.93904"
   viewBox="0 0 174.9384 174.93904"
   xmlns="http://www.w3.org/2000/svg">
  <defs
     id="defs1">
    <clipPath
       clipPathUnits="userSpaceOnUse"
       id="clipPath10">
      <path
         d="M 0,500 H 750 V 0 H 0 Z"
         transform="translate(-537.38872,-360.44481)"
         id="path10" />
    </clipPath>
    <clipPath
       clipPathUnits="userSpaceOnUse"
       id="clipPath12">
      <path
         d="M 0,500 H 750 V 0 H 0 Z"
         transform="translate(-592.08691,-415.14211)"
         id="path12" />
    </clipPath>
    <clipPath
       clipPathUnits="userSpaceOnUse"
       id="clipPath14">
      <path
         d="M 0,500 H 750 V 0 H 0 Z"
         transform="translate(-581.52442,-360.44481)"
         id="path14" />
    </clipPath>
    <clipPath
       clipPathUnits="userSpaceOnUse"
       id="clipPath19">
      <path
         d="M 0,500 H 750 V 0 H 0 Z"
         transform="translate(-605.65432,-341.94381)"
         id="path19" />
    </clipPath>
    <clipPath
       clipPathUnits="userSpaceOnUse"
       id="clipPath21">
      <path
         d="M 0,500 H 750 V 0 H 0 Z"
         transform="translate(-618.31151,-330.80031)"
         id="path21" />
    </clipPath>
  </defs>
  <g
     id="layer-MC1"
     transform="translate(-658.47351,-69.17939)">
    <path
       id="path9"
       d="m 0,0 c -12.187,12.188 -12.187,31.949 0,44.135 12.188,12.189 31.948,12.189 44.136,0 C 56.323,31.949 56.323,12.188 44.136,0 31.948,-12.187 12.188,-12.187 0,0 M 68.456,68.455 C 42.837,94.075 1.299,94.076 -24.32,68.457 -49.938,42.836 -49.938,1.299 -24.318,-24.319 c 25.617,-25.619 67.155,-25.62 92.774,0 25.619,25.618 25.619,67.155 0,92.774"
       style="fill:#282531;fill-opacity:1;fill-rule:nonzero;stroke:none"
       transform="matrix(1.3333333,0,0,-1.3333333,716.51827,186.0736)"
       clip-path="url(#clipPath10)" />
    <path
       id="path11"
       d="m 0,0 c -18.021,18.021 -47.239,18.023 -65.26,0.001 -18.02,-18.021 -18.02,-47.239 0.003,-65.26 18.018,-18.019 47.236,-18.021 65.257,0 C 18.021,-47.238 18.021,-18.02 0,0"
       style="fill:#ffffff;fill-opacity:1;fill-rule:nonzero;stroke:none"
       transform="matrix(1.3333333,0,0,-1.3333333,789.4492,113.14387)"
       clip-path="url(#clipPath12)" />
    <path
       id="path13"
       d="m 0,0 c -12.188,-12.187 -31.948,-12.187 -44.136,0 -12.186,12.188 -12.186,31.949 0,44.135 9.48,9.48 23.54,11.587 35.055,6.32 6.434,-2.942 14.044,-1.356 19.047,3.646 8.435,8.436 5.953,22.79 -4.911,27.719 -24.173,10.969 -53.633,6.514 -73.511,-13.363 -25.618,-25.621 -25.618,-67.158 0.002,-92.776 25.617,-25.619 67.155,-25.62 92.774,0 z"
       style="fill:#ffd634;fill-opacity:1;fill-rule:nonzero;stroke:none"
       transform="matrix(1.3333333,0,0,-1.3333333,775.36587,186.0736)"
       clip-path="url(#clipPath14)" />
    <path
       id="path18"
       d="m 0,0 -42.882,40.576 c 1.164,1.835 1.795,3.961 1.792,6.187 -0.005,3.089 -1.212,5.992 -3.398,8.174 l -5.972,5.954 -0.003,0.003 -12.991,11.841 c -0.525,0.476 -1.343,0.486 -1.876,-0.003 -0.566,-0.519 -0.605,-1.399 -0.086,-1.964 l 10.407,-11.355 -3.686,-3.696 -11.347,10.411 c -0.549,0.502 -1.405,0.512 -1.962,-0.002 -0.588,-0.543 -0.625,-1.459 -0.082,-2.047 l 10.443,-11.318 -3.686,-3.697 -11.383,10.376 c -0.526,0.477 -1.343,0.486 -1.876,-0.002 -0.566,-0.52 -0.604,-1.399 -0.086,-1.965 l 11.868,-12.949 c 0.004,-0.004 0.007,-0.009 0.011,-0.014 l 5.971,-5.952 c 3.9,-3.89 9.9,-4.407 14.366,-1.57 L -5.765,-5.781 c 0.046,-0.048 0.103,-0.105 0.153,-0.152 1.637,-1.549 4.222,-1.478 5.772,0.16 C 1.71,-4.135 1.639,-1.55 0,0"
       style="fill:#282531;fill-opacity:1;fill-rule:nonzero;stroke:none"
       transform="matrix(1.3333333,0,0,-1.3333333,807.53907,210.7416)"
       clip-path="url(#clipPath19)" />
    <path
       id="path20"
       d="m 0,0 c -2.145,2.145 -5.622,2.145 -7.767,0 -2.145,-2.145 -2.145,-5.623 0,-7.768 2.145,-2.144 5.622,-2.145 7.767,0 2.146,2.145 2.146,5.623 0,7.768"
       style="fill:#282531;fill-opacity:1;fill-rule:nonzero;stroke:none"
       transform="matrix(1.3333333,0,0,-1.3333333,824.41533,225.5996)"
       clip-path="url(#clipPath21)" />
  </g>
</svg>
